/* XPM */
static const char * rot_xpm[] = {
"32 32 5 1",
" 	c None",
"x	c #000010",
"y	c #9999a0",
"a	c #888890",
"z	c #ffffff",
"             azzxx              ",
"            azy   x             ",
"           azy     x            ",
"           azy     x            ",
"          azy       x           ",
"          azy       x           ",
"          azy       x           ",
"         azy         x          ",
"         azy         x          ",
"         azyxxxxxxxx x          ",
"       xxazy        xxxxx       ",
"    xxx  azy         x   xxx    ",
"  xx azyazy zy        x     xx  ",
" x    azyz zy         x       x ",
"x     azyz zy         x        x",
"x      azzzy          x        x",
"z      azzzy          x        z",
"yz      azy           x       zy",
" yzz    azy  z        x     zzy ",
"  yyzzz      yzz     x   zzzyy  ",
"    yyyzzzz   yyzz   zzzzyyy    ",
"       yyyyzzzzzzzzz yyyy       ",
"          zyyyyyzzyy x          ",
"          zy  zzyy   x          ",
"          zy zyy     x          ",
"           zyy      x           ",
"           zy       x           ",
"           zy       x           ",
"            zy     x            ",
"            zy     x            ",
"             zy   x             ",
"              zzxx              "};
