/* XPM */
static const char * zoom_xpm[] = {
"32 32 5 1",
" 	c None",
".	c #000011",
"x	c #333355",
"z	c #7777bb",
"y	c #ccccdd",
"y                               ",
"xy                              ",
"xzy                             ",
"xzyy                            ",
"xzzyy                           ",
"xzzzyy                          ",
"xzzzzyy                         ",
"xzzzzzyy                        ",
"xzzzzzzyy                       ",
"xzzzzzzzyy                      ",
"xzzzzzzzzyy                     ",
"xzzzzzzzzzyy                    ",
"xzzzzzzzzzzyy                   ",
"xzzzzz......yy                  ",
"xzzzz.                          ",
"xzzz.                           ",
"xzz.           yyyyyyyyyyyyyy   ",
"xz.           yxxxxxxxxxxxxxyx  ",
"x.           yx    yyyyyy    yx ",
"x           yx     yzzzzx     yx",
"            yx   yyyzzzzxyy   yx",
"            yx   yzzzzzzzzx   yx",
"            yx   yzzzzzzzzx   yx",
"            yx   yxxzzzz...   yx",
"            yx     yzzzz.     yx",
"            yx     y.....     yx",
"            yx   yyyyyyyyyy   yx",
"            yx   yzzzzzzzzy   yx",
"            yx   yxxxxxxxxx   yx",
"             yx              yx ",
"              yxyyyyyyyyyyyyyx  ",
"               yxxxxxxxxxxxxx   "};
