/* XPM */
static const char * rot_y_xpm[] = {
"32 32 7 1",
" 	c None",
"x	c #000000",
"y	c #999999",
"a	c #888888",
"z	c #ffffff",
"g	c #0000ff",
"b	c #000066",
"              bggb              ",
"              bggb              ",
"              bggb              ",
"              bggb              ",
"              bggb              ",
"              bggb              ",
"              bggb              ",
"              bggb              ",
"              bggb              ",
"            xxbggbxx            ",
"       xxxxx  bggb  xxxxx       ",
"    xxx       bggb       xxx    ",
"  xx          bggb          xx  ",
" x            bggb            x ",
"x             bggb             x",
"x             bggb             x",
"z             bggb             z",
"yz            bggb            zy",
" yzz         zbggb          zzy ",
"  yyzzz      yzzgb       zzzyy  ",
"    yyyzzzz   yyzz    zzzyyy    ",
"       yyyyzzzzzzzzz  yyy       ",
"           yyyyyzzyy            ",
"              zzyy              ",
"             zyygb              ",
"             ybggb              ",
"              bggb              ",
"              bggb              ",
"              bggb              ",
"              bggb              ",
"              bggb              ",
"              bggb              "};
