/* XPM */
static const char * move_xpm[] = {
"32 32 7 1",
" 	c None",
".	c #dddddd",
",	c #333335",
"a	c #ddddee",
"z	c #555566",
"x	c #555556",
"w	c #ddddff",
"               az               ",
"              aazz              ",
"             aaazzz             ",
"            aaaazzzz            ",
"           aaaaazzzzz           ",
"          aaaaaazzzzzz          ",
"             www,,,             ",
"             www,,,             ",
"             www,,,             ",
"             www,,,             ",
"     a       www,,,       .     ",
"    aa       www,,,       ..    ",
"   aaa       www,,,       ...   ",
"  aaaa.......www,,,aaaaaaa....  ",
" aaaaa........ww,,aaaaaaaa..... ",
"aaaaaa.........w,aaaaaaaaa......",
"zzzzzz,,,,,,,,,,xzzzzzzzzz,,,,,,",
" zzzzz,,,,,,,,,axxzzzzzzzz,,,,, ",
"  zzzz,,,,,,,,aaxxxzzzzzzz,,,,  ",
"   zzz       aaaxxx       ,,,   ",
"    zz       aaaxxx       ,,    ",
"     z       aaaxxx       ,     ",
"             aaaxxx             ",
"             aaaxxx             ",
"             aaaxxx             ",
"             aaaxxx             ",
"          ......,,,,,,          ",
"           .....,,,,,           ",
"            ....,,,,            ",
"             ...,,,             ",
"              ..,,              ",
"               .,               "};

