/* XPM */
static const char * zoom_w_xpm[] = {
"32 32 5 1",
" 	c None",
".	c #000011",
"x	c #333355",
"z	c #7777bb",
"y	c #ccccdd",
"y                               ",
"xy                              ",
"xzy                             ",
"xzyy                            ",
"xzzyy                           ",
"xzzzyy                          ",
"xzzzzyy                         ",
"xzzzzzyy                        ",
"xzzzzzzyy                       ",
"xzzzzzzzyy                      ",
"xzzzzzzzzyy                     ",
"xzzzzzzzzzyy                    ",
"xzzzzzzzzzzyy                   ",
"xzzzzz......yy                  ",
"xzzzz.                          ",
"xzzz.                           ",
"xzz.        yyyyyyyyyyyyyyyyyyyy",
"xz.         yxxxxxxxxxxxxxxxxxxx",
"x.          yx                yx",
"x           yx   yyyyyyyyyy   yx",
"            yx   yzzzzzzzzy   yx",
"            yx   yxxxxxzzzx   yx",
"            yx       yzzzx    yx",
"            yx      yzzzx     yx",
"            yx     yzzzx      yx",
"            yx    yzzzx       yx",
"            yx   yzzzyyyyyy   yx",
"            yx   yzzzzzzzzy   yx",
"            yx   yxxxxxxxxx   yx",
"            yx                yx",
"            yxyyyyyyyyyyyyyyyyyx",
"            yxxxxxxxxxxxxxxxxxxx"};
