/* XPM */
static const char * rot_z_xpm[] = {
"32 32 3 1",
" 	c None",
".	c #7777bb",
",	c #000066",
"                                ",
"                                ",
"            ,,,,,,,,            ",
"          ,,........,,          ",
"        ,,..,,,,,,,,..,,        ",
"       ,..,,        ,,..,       ",
"      ,..,            ,..,      ",
"     ,..,              ,..,     ",
"      .,                ,..,    ",
"                         ,.,    ",
"                          ,.,   ",
"   ,                      ,.,   ",
"  ,.,                      ,.,  ",
"  ,.,                      ,.,  ",
" ,,.,,         ,,          ,.,  ",
" ,,.,,        ,..,         ,.,  ",
", ,., ,       ,..,         ,.,  ",
", ,., ,        ,,          ,.,  ",
"  ,.,                      ,.,  ",
"  ,.,                      ,.,  ",
"   ,.,                    ,.,   ",
"   ,.,                    ..,   ",
"    ,.,                  ,.,    ",
"    ,..,                ,..,    ",
"     ,..,              ,..,     ",
"      ,..,            ,..,      ",
"       ,..,,        ,,..,       ",
"        ,...,,,,,,,,..,,        ",
"          ,,.........,          ",
"            ,,,,,,,,            ",
"                                ",
"                                "};
